<svg xmlns="http://www.w3.org/2000/svg" version="1.1" xmlns:xlink="http://www.w3.org/1999/xlink" xmlns:svgjs="http://svgjs.com/svgjs" width="2560" height="2560" preserveAspectRatio="none" viewBox="0 0 2560 2560">
    <g mask="url(&quot;#SvgjsMask1028&quot;)" fill="none">
        <rect width="2560" height="2560" x="0" y="0" fill="url(#SvgjsLinearGradient1029)"></rect>
        <path d="M2560 0L1587.1399999999999 0L2560 17.04z" fill="rgba(255, 255, 255, .1)"></path>
        <path d="M1587.1399999999999 0L2560 17.04L2560 463.33000000000004L1158.75 0z" fill="rgba(255, 255, 255, .075)"></path>
        <path d="M1158.75 0L2560 463.33000000000004L2560 1712.21L1117.36 0z" fill="rgba(255, 255, 255, .05)"></path>
        <path d="M1117.36 0L2560 1712.21L2560 2247.24L688.1799999999998 0z" fill="rgba(255, 255, 255, .025)"></path>
        <path d="M0 2560L620.44 2560L0 2553z" fill="rgba(0, 0, 0, .1)"></path>
        <path d="M0 2553L620.44 2560L1685.21 2560L0 2469.33z" fill="rgba(0, 0, 0, .075)"></path>
        <path d="M0 2469.33L1685.21 2560L1779.76 2560L0 1116.12z" fill="rgba(0, 0, 0, .05)"></path>
        <path d="M0 1116.12L1779.76 2560L2180.21 2560L0 564.2299999999999z" fill="rgba(0, 0, 0, .025)"></path>
    </g>
    <defs>
        <mask id="SvgjsMask1028">
            <rect width="2560" height="2560" fill="#ffffff"></rect>
        </mask>
        <linearGradient x1="100%" y1="0%" x2="0%" y2="100%" gradientUnits="userSpaceOnUse" id="SvgjsLinearGradient1029">
            <stop stop-color="#0e2a47" offset="0"></stop>
            <stop stop-color="rgba(28, 12, 91, 1)" offset="1"></stop>
        </linearGradient>
    </defs>
</svg>
